<svg id="owl-logo" width="281" height="341" viewBox="0 0 281 341" fill="none" xmlns="http://www.w3.org/2000/svg">
     <path d="M199.849 220.637C195.706 220.637 192.349 223.995 192.349 228.137C192.349 233.067 186.718 237.231 180.054 237.231C173.388 237.231 167.757 233.067 167.757 228.137C167.757 223.995 164.4 220.637 160.257 220.637C156.114 220.637 152.757 223.995 152.757 228.137C152.757 233.067 147.126 237.231 140.46 237.231C133.794 237.231 128.161 233.067 128.161 228.137C128.161 223.995 124.804 220.637 120.661 220.637C116.518 220.637 113.161 223.995 113.161 228.137C113.161 233.067 107.53 237.231 100.864 237.231C94.2 237.231 88.569 233.067 88.569 228.137C88.569 223.995 85.212 220.637 81.069 220.637C76.926 220.637 73.569 223.995 73.569 228.137C73.569 241.422 85.813 252.231 100.864 252.231C108.653 252.231 115.684 249.333 120.661 244.7C125.64 249.333 132.671 252.231 140.46 252.231C148.249 252.231 155.28 249.333 160.257 244.7C165.236 249.333 172.267 252.231 180.054 252.231C195.105 252.231 207.349 241.422 207.349 228.137C207.349 223.994 203.992 220.637 199.849 220.637Z" fill="#571d85" />
     <path d="M180.055 257.486C175.912 257.486 172.555 260.843 172.555 264.986C172.555 269.916 166.924 274.08 160.258 274.08C153.592 274.08 147.961 269.916 147.961 264.986C147.961 260.843 144.604 257.486 140.461 257.486C136.318 257.486 132.961 260.843 132.961 264.986C132.961 269.916 127.33 274.08 120.662 274.08C113.996 274.08 108.365 269.916 108.365 264.986C108.365 260.843 105.008 257.486 100.865 257.486C96.722 257.486 93.365 260.843 93.365 264.986C93.365 278.271 105.611 289.08 120.662 289.08C128.451 289.08 135.482 286.182 140.461 281.549C145.44 286.182 152.471 289.08 160.258 289.08C175.311 289.08 187.555 278.271 187.555 264.986C187.555 260.844 184.197 257.486 180.055 257.486Z" fill="#571d85" />
     <path d="M280.922 119.398C280.922 91.4797 268.203 65.7977 246.477 48.9597C259.174 36.8617 270.571 24.1847 278.819 11.6147C280.88 8.47469 280.299 4.29569 277.462 1.83469C274.624 -0.626313 270.405 -0.610314 267.589 1.87569C256.144 11.9667 221.163 35.9497 197.077 25.8887C170.589 14.8257 158.327 14.8837 144.126 14.9737C142.933 14.9807 137.989 14.9807 136.798 14.9737C122.603 14.8917 110.333 14.8257 83.845 25.8887C54.906 37.9777 13.742 2.23369 13.334 1.87569C10.516 -0.608313 6.295 -0.623314 3.459 1.83569C0.623 4.29669 0.043 8.47669 2.104 11.6157C10.35 24.1847 21.747 36.8617 34.444 48.9607C12.719 65.7987 0 91.4777 0 119.398C0 144.207 10.182 166.679 26.58 182.868C20.41 199.03 9.4 235.197 23.357 258.84C29.941 269.995 40.904 276.863 55.955 279.317C61.141 288.491 68.482 296.683 77.447 303.454V322.942C77.447 332.426 86.004 340.143 96.519 340.143C107.037 340.143 115.593 332.426 115.593 322.942V320.879C123.507 322.679 131.841 323.646 140.445 323.646L140.461 323.645C140.465 323.645 140.471 323.646 140.475 323.646C149.079 323.646 157.413 322.679 165.327 320.879V322.942C165.327 332.426 173.886 340.143 184.403 340.143C194.921 340.143 203.475 332.426 203.475 322.942V303.453C212.44 296.682 219.782 288.49 224.965 279.317C240.018 276.864 250.981 269.995 257.567 258.837C271.524 235.192 260.512 199.029 254.34 182.869C270.74 166.681 280.922 144.207 280.922 119.398ZM265.922 119.398C265.922 160.326 232.625 193.623 191.697 193.623C178.472 193.623 165.67 190.15 154.365 183.553L158.746 167.94C168.146 174.342 179.492 178.09 191.697 178.09C224.058 178.09 250.386 151.761 250.386 119.399C250.386 98.9917 239.726 80.2987 222.919 69.7077C227.056 66.3117 231.171 62.8267 235.216 59.2667C254.539 73.2227 265.922 95.3097 265.922 119.398ZM70.695 79.8237C78.517 85.8757 86.215 91.5217 93.439 96.6367L108.987 107.349C119.61 114.474 128.104 119.782 132.78 122.643C131.112 145.223 112.221 163.088 89.223 163.088C65.131 163.088 45.532 143.488 45.532 119.397C45.533 102.373 55.496 86.9507 70.695 79.8237ZM187.48 96.6387C194.707 91.5247 202.404 85.8767 210.224 79.8257C225.423 86.9527 235.386 102.376 235.386 119.4C235.386 143.492 215.788 163.091 191.697 163.091C168.699 163.091 149.808 145.226 148.138 122.646C152.816 119.785 161.31 114.476 171.935 107.35L187.48 96.6387ZM140.459 152.754L145.594 159.297L140.461 177.588L135.328 159.296L140.459 152.754ZM89.625 39.7307C113.301 29.8417 123.119 29.8887 136.713 29.9737C137.932 29.9807 142.988 29.9807 144.209 29.9737C157.787 29.8887 167.621 29.8417 191.295 39.7307C205.904 45.8297 221.879 43.4367 236.07 38.1247C200.769 71.6577 153.982 101.406 140.461 109.743C126.938 101.406 80.152 71.6577 44.852 38.1257C59.039 43.4347 75.015 45.8297 89.625 39.7307ZM15 119.398C15 95.3077 26.383 73.2197 45.705 59.2637C49.75 62.8247 53.865 66.3097 58 69.7057C41.193 80.2987 30.533 98.9907 30.533 119.398C30.533 151.76 56.863 178.089 89.224 178.089C101.429 178.089 112.773 174.341 122.173 167.94L126.554 183.552C115.249 190.15 102.449 193.622 89.224 193.622C48.297 193.623 15 160.326 15 119.398ZM36.273 251.214C26.666 234.939 33.74 207.837 38.863 193.01C41.597 194.887 44.439 196.614 47.381 198.182V247.352C47.381 252.364 47.981 257.262 49.111 262.006C43.4 259.668 39.154 256.094 36.273 251.214ZM100.594 322.941C100.594 323.717 99.047 325.142 96.52 325.142C93.995 325.142 92.448 323.717 92.448 322.941V312.691C95.081 313.996 97.8 315.196 100.595 316.286V322.941H100.594ZM188.474 322.941C188.474 323.717 186.929 325.142 184.402 325.142C181.875 325.142 180.326 323.717 180.326 322.941V316.286C183.121 315.195 185.842 313.996 188.474 312.691V322.941ZM140.474 308.644C140.47 308.644 140.464 308.645 140.46 308.645L140.444 308.644C97.399 308.644 62.38 281.148 62.38 247.351V204.494C70.857 207.174 79.874 208.623 89.224 208.623C103.812 208.623 117.978 205.111 130.72 198.4C130.72 198.4 132.851 211.296 138.349 212.869C139.025 213.062 139.708 213.15 140.378 213.15C140.405 213.15 140.431 213.144 140.458 213.143C140.485 213.144 140.511 213.15 140.538 213.15C141.208 213.15 141.886 213.038 142.567 212.87C147.37 211.688 150.198 198.4 150.198 198.4C162.938 205.111 177.108 208.623 191.696 208.623C201.046 208.623 210.063 207.174 218.538 204.494V247.351C218.539 281.148 183.519 308.644 140.474 308.644ZM244.648 251.213C241.767 256.094 237.521 259.668 231.81 262.006C232.939 257.262 233.538 252.363 233.538 247.352V198.184C236.479 196.616 239.323 194.887 242.058 193.011C247.181 207.836 254.256 234.933 244.648 251.213Z" fill="#571d85"/>
     <path d="M98.8799 135.283C98.8799 136.373 98.668 137.443 98.2441 138.492C97.8203 139.521 97.2148 140.48 96.4277 141.368C95.6608 142.256 94.7122 143.053 93.582 143.76C92.472 144.466 91.2207 145.011 89.8281 145.395V149.148H86.498V145.939C86.2357 145.98 85.9733 146 85.7109 146H84.0762V149.148H80.7158V145.455C79.404 145.092 78.2031 144.567 77.1133 143.881C76.0234 143.195 75.0749 142.367 74.2676 141.398C73.4603 140.41 72.8346 139.289 72.3906 138.038C71.9466 136.767 71.7246 135.374 71.7246 133.86H77.4463C77.4463 135.132 77.7188 136.343 78.2637 137.493C78.8288 138.644 79.6462 139.582 80.7158 140.309V126.716C79.404 126.292 78.193 125.798 77.083 125.232C75.973 124.667 75.0143 123.991 74.207 123.204C73.3997 122.417 72.7741 121.499 72.3301 120.449C71.8861 119.4 71.6641 118.179 71.6641 116.786C71.6641 115.494 71.8861 114.324 72.3301 113.274C72.7741 112.225 73.3896 111.297 74.1768 110.489C74.984 109.662 75.9427 108.976 77.0527 108.431C78.1628 107.866 79.3838 107.432 80.7158 107.129V103.466H84.0762V106.705H85.832C86.054 106.705 86.276 106.725 86.498 106.766V103.466H89.8281V107.25C90.9987 107.553 92.0885 107.987 93.0977 108.552C94.1068 109.097 94.9948 109.773 95.7617 110.58C96.5286 111.367 97.1543 112.275 97.6387 113.305C98.123 114.334 98.4359 115.474 98.5771 116.726H93.4912C93.3096 115.696 92.9059 114.758 92.2803 113.91C91.6546 113.042 90.8372 112.336 89.8281 111.791V124.597C92.7747 125.606 95.015 126.998 96.5488 128.774C98.1029 130.55 98.8799 132.72 98.8799 135.283ZM86.498 128.32L84.0762 127.594V141.55C84.2376 141.59 84.389 141.61 84.5303 141.61H85.7412C85.9834 141.61 86.2357 141.59 86.498 141.55V128.32ZM86.498 123.628C86.498 122.276 86.488 120.934 86.4678 119.602C86.4678 118.27 86.4577 117.038 86.4375 115.908C86.4375 114.758 86.4173 113.739 86.377 112.851C86.3568 111.942 86.3265 111.236 86.2861 110.731H86.1348C85.9329 110.691 85.7412 110.661 85.5596 110.641C85.3779 110.62 85.1862 110.61 84.9844 110.61H84.0762V122.811C84.4395 122.972 84.8229 123.113 85.2266 123.234C85.6302 123.355 86.054 123.487 86.498 123.628ZM80.7158 111.397C79.626 111.922 78.8288 112.649 78.3242 113.577C77.8197 114.485 77.5674 115.494 77.5674 116.604C77.5674 117.129 77.6077 117.614 77.6885 118.058C77.7894 118.481 77.9609 118.895 78.2031 119.299C78.4453 119.682 78.7682 120.056 79.1719 120.419C79.5755 120.762 80.0902 121.105 80.7158 121.448V111.397ZM92.7344 134.89C92.7344 133.921 92.5124 133.033 92.0684 132.226C91.6445 131.398 90.8978 130.641 89.8281 129.955V140.369C90.8574 139.723 91.5941 138.906 92.0381 137.917C92.5023 136.928 92.7344 135.919 92.7344 134.89Z" fill="#571d85"/>
     <path d="M208.88 135.283C208.88 136.373 208.668 137.443 208.244 138.492C207.82 139.521 207.215 140.48 206.428 141.368C205.661 142.256 204.712 143.053 203.582 143.76C202.472 144.466 201.221 145.011 199.828 145.395V149.148H196.498V145.939C196.236 145.98 195.973 146 195.711 146H194.076V149.148H190.716V145.455C189.404 145.092 188.203 144.567 187.113 143.881C186.023 143.195 185.075 142.367 184.268 141.398C183.46 140.41 182.835 139.289 182.391 138.038C181.947 136.767 181.725 135.374 181.725 133.86H187.446C187.446 135.132 187.719 136.343 188.264 137.493C188.829 138.644 189.646 139.582 190.716 140.309V126.716C189.404 126.292 188.193 125.798 187.083 125.232C185.973 124.667 185.014 123.991 184.207 123.204C183.4 122.417 182.774 121.499 182.33 120.449C181.886 119.4 181.664 118.179 181.664 116.786C181.664 115.494 181.886 114.324 182.33 113.274C182.774 112.225 183.39 111.297 184.177 110.489C184.984 109.662 185.943 108.976 187.053 108.431C188.163 107.866 189.384 107.432 190.716 107.129V103.466H194.076V106.705H195.832C196.054 106.705 196.276 106.725 196.498 106.766V103.466H199.828V107.25C200.999 107.553 202.089 107.987 203.098 108.552C204.107 109.097 204.995 109.773 205.762 110.58C206.529 111.367 207.154 112.275 207.639 113.305C208.123 114.334 208.436 115.474 208.577 116.726H203.491C203.31 115.696 202.906 114.758 202.28 113.91C201.655 113.042 200.837 112.336 199.828 111.791V124.597C202.775 125.606 205.015 126.998 206.549 128.774C208.103 130.55 208.88 132.72 208.88 135.283ZM196.498 128.32L194.076 127.594V141.55C194.238 141.59 194.389 141.61 194.53 141.61H195.741C195.983 141.61 196.236 141.59 196.498 141.55V128.32ZM196.498 123.628C196.498 122.276 196.488 120.934 196.468 119.602C196.468 118.27 196.458 117.038 196.438 115.908C196.438 114.758 196.417 113.739 196.377 112.851C196.357 111.942 196.326 111.236 196.286 110.731H196.135C195.933 110.691 195.741 110.661 195.56 110.641C195.378 110.62 195.186 110.61 194.984 110.61H194.076V122.811C194.439 122.972 194.823 123.113 195.227 123.234C195.63 123.355 196.054 123.487 196.498 123.628ZM190.716 111.397C189.626 111.922 188.829 112.649 188.324 113.577C187.82 114.485 187.567 115.494 187.567 116.604C187.567 117.129 187.608 117.614 187.688 118.058C187.789 118.481 187.961 118.895 188.203 119.299C188.445 119.682 188.768 120.056 189.172 120.419C189.576 120.762 190.09 121.105 190.716 121.448V111.397ZM202.734 134.89C202.734 133.921 202.512 133.033 202.068 132.226C201.645 131.398 200.898 130.641 199.828 129.955V140.369C200.857 139.723 201.594 138.906 202.038 137.917C202.502 136.928 202.734 135.919 202.734 134.89Z" fill="#571d85"/>
</svg>
